{
  "accessors": [
    {
      "bufferView": 0,
      "byteOffset": 0,
      "componentType": 5123,
      "count": 21804,
      "max": [
        21469.0
      ],
      "min": [
        0.0
      ],
      "name": "buffer-0-group-0-mesh-0-indices",
      "type": "SCALAR"
    },
    {
      "bufferView": 1,
      "byteOffset": 0,
      "componentType": 5126,
      "count": 21470,
      "max": [
        95.55989837646484,
        117.59369659423828,
        217.67140197753906
      ],
      "min": [
        -134.6428985595703,
        12.992300033569336,
        -271.769287109375
      ],
      "name": "buffer-0-group-0-mesh-0-position",
      "type": "VEC3"
    },
    {
      "bufferView": 1,
      "byteOffset": 257640,
      "componentType": 5126,
      "count": 21470,
      "max": [
        1.0,
        1.0,
        1.0
      ],
      "min": [
        -1.0,
        -1.0,
        -1.0
      ],
      "name": "buffer-0-group-0-mesh-0-normal",
      "type": "VEC3"
    },
    {
      "bufferView": 2,
      "byteOffset": 0,
      "componentType": 5126,
      "count": 21470,
      "max": [
        0.9986000061035156,
        -0.001500000013038516
      ],
      "min": [
        3.9999998989515007E-4,
        -0.9975000023841858
      ],
      "name": "buffer-0-group-0-mesh-0-texcoord",
      "type": "VEC2"
    },
    {
      "bufferView": 0,
      "byteOffset": 43608,
      "componentType": 5123,
      "count": 2142,
      "max": [
        1993.0
      ],
      "min": [
        0.0
      ],
      "name": "buffer-0-group-1-mesh-0-indices",
      "type": "SCALAR"
    },
    {
      "bufferView": 1,
      "byteOffset": 515280,
      "componentType": 5126,
      "count": 1994,
      "max": [
        81.13829803466797,
        69.15760040283203,
        133.99749755859375
      ],
      "min": [
        50.63690185546875,
        0.04039999842643738,
        64.88009643554688
      ],
      "name": "buffer-0-group-1-mesh-0-position",
      "type": "VEC3"
    },
    {
      "bufferView": 1,
      "byteOffset": 539208,
      "componentType": 5126,
      "count": 1994,
      "max": [
        1.0,
        0.9995541572570801,
        0.9995541572570801
      ],
      "min": [
        -1.0,
        -0.9995541572570801,
        -0.9995538592338562
      ],
      "name": "buffer-0-group-1-mesh-0-normal",
      "type": "VEC3"
    },
    {
      "bufferView": 2,
      "byteOffset": 171760,
      "componentType": 5126,
      "count": 1994,
      "max": [
        0.9976999759674072,
        -0.5250999927520752
      ],
      "min": [
        0.6901000142097473,
        -0.9965999722480774
      ],
      "name": "buffer-0-group-1-mesh-0-texcoord",
      "type": "VEC2"
    },
    {
      "bufferView": 0,
      "byteOffset": 47892,
      "componentType": 5123,
      "count": 2142,
      "max": [
        2036.0
      ],
      "min": [
        0.0
      ],
      "name": "buffer-0-group-2-mesh-0-indices",
      "type": "SCALAR"
    },
    {
      "bufferView": 1,
      "byteOffset": 563136,
      "componentType": 5126,
      "count": 2037,
      "max": [
        -89.71980285644531,
        69.15760040283203,
        133.99749755859375
      ],
      "min": [
        -120.22119903564453,
        0.04039999842643738,
        64.88009643554688
      ],
      "name": "buffer-0-group-2-mesh-0-position",
      "type": "VEC3"
    },
    {
      "bufferView": 1,
      "byteOffset": 587580,
      "componentType": 5126,
      "count": 2037,
      "max": [
        1.0,
        0.9995541572570801,
        0.9995541572570801
      ],
      "min": [
        -1.0,
        -0.9995541572570801,
        -0.9995538592338562
      ],
      "name": "buffer-0-group-2-mesh-0-normal",
      "type": "VEC3"
    },
    {
      "bufferView": 2,
      "byteOffset": 187712,
      "componentType": 5126,
      "count": 2037,
      "max": [
        0.9976999759674072,
        -0.5250999927520752
      ],
      "min": [
        0.6901000142097473,
        -0.9965999722480774
      ],
      "name": "buffer-0-group-2-mesh-0-texcoord",
      "type": "VEC2"
    },
    {
      "bufferView": 0,
      "byteOffset": 52176,
      "componentType": 5123,
      "count": 2142,
      "max": [
        1960.0
      ],
      "min": [
        0.0
      ],
      "name": "buffer-0-group-3-mesh-0-indices",
      "type": "SCALAR"
    },
    {
      "bufferView": 1,
      "byteOffset": 612024,
      "componentType": 5126,
      "count": 1961,
      "max": [
        81.94020080566406,
        72.79190063476562,
        -139.09230041503906
      ],
      "min": [
        49.83489990234375,
        0.04039999842643738,
        -211.843994140625
      ],
      "name": "buffer-0-group-3-mesh-0-position",
      "type": "VEC3"
    },
    {
      "bufferView": 1,
      "byteOffset": 635556,
      "componentType": 5126,
      "count": 1961,
      "max": [
        1.0,
        0.9995541572570801,
        0.999553918838501
      ],
      "min": [
        -1.0,
        -0.9995541572570801,
        -0.999553918838501
      ],
      "name": "buffer-0-group-3-mesh-0-normal",
      "type": "VEC3"
    },
    {
      "bufferView": 2,
      "byteOffset": 204008,
      "componentType": 5126,
      "count": 1961,
      "max": [
        0.9976999759674072,
        -0.5250999927520752
      ],
      "min": [
        0.6901000142097473,
        -0.9965999722480774
      ],
      "name": "buffer-0-group-3-mesh-0-texcoord",
      "type": "VEC2"
    },
    {
      "bufferView": 0,
      "byteOffset": 56460,
      "componentType": 5123,
      "count": 2142,
      "max": [
        2026.0
      ],
      "min": [
        0.0
      ],
      "name": "buffer-0-group-4-mesh-0-indices",
      "type": "SCALAR"
    },
    {
      "bufferView": 1,
      "byteOffset": 659088,
      "componentType": 5126,
      "count": 2027,
      "max": [
        -88.91790008544922,
        72.79190063476562,
        -139.09230041503906
      ],
      "min": [
        -121.02320098876953,
        0.04039999842643738,
        -211.843994140625
      ],
      "name": "buffer-0-group-4-mesh-0-position",
      "type": "VEC3"
    },
    {
      "bufferView": 1,
      "byteOffset": 683412,
      "componentType": 5126,
      "count": 2027,
      "max": [
        1.0,
        0.9995541572570801,
        0.999553918838501
      ],
      "min": [
        -1.0,
        -0.9995541572570801,
        -0.999553918838501
      ],
      "name": "buffer-0-group-4-mesh-0-normal",
      "type": "VEC3"
    },
    {
      "bufferView": 2,
      "byteOffset": 219696,
      "componentType": 5126,
      "count": 2027,
      "max": [
        0.9976999759674072,
        -0.5250999927520752
      ],
      "min": [
        0.6901000142097473,
        -0.9965999722480774
      ],
      "name": "buffer-0-group-4-mesh-0-texcoord",
      "type": "VEC2"
    },
    {
      "bufferView": 0,
      "byteOffset": 60744,
      "componentType": 5123,
      "count": 384,
      "max": [
        383.0
      ],
      "min": [
        0.0
      ],
      "name": "buffer-0-group-5-mesh-0-indices",
      "type": "SCALAR"
    },
    {
      "bufferView": 1,
      "byteOffset": 707736,
      "componentType": 5126,
      "count": 384,
      "max": [
        68.34880065917969,
        110.94429779052734,
        187.12869262695312
      ],
      "min": [
        -107.43170166015625,
        52.842098236083984,
        -88.46549987792969
      ],
      "name": "buffer-0-group-5-mesh-0-position",
      "type": "VEC3"
    },
    {
      "bufferView": 1,
      "byteOffset": 712344,
      "componentType": 5126,
      "count": 384,
      "max": [
        0.8980048894882202,
        0.9693109393119812,
        0.9173381924629211
      ],
      "min": [
        -0.8980081081390381,
        0.17318452894687653,
        -0.11012852191925049
      ],
      "name": "buffer-0-group-5-mesh-0-normal",
      "type": "VEC3"
    },
    {
      "bufferView": 2,
      "byteOffset": 235912,
      "componentType": 5126,
      "count": 384,
      "max": [
        0.9965999722480774,
        -0.1590999960899353
      ],
      "min": [
        0.05950000137090683,
        -0.5224999785423279
      ],
      "name": "buffer-0-group-5-mesh-0-texcoord",
      "type": "VEC2"
    }
  ],
  "asset": {
    "generator": "Obj2GltfConverter",
    "version": "2.0"
  },
  "bufferViews": [
    {
      "buffer": 0,
      "byteLength": 61512,
      "byteOffset": 0,
      "name": "buffer-0-bufferview-ushort",
      "target": 34963
    },
    {
      "buffer": 0,
      "byteLength": 716952,
      "byteOffset": 61512,
      "byteStride": 12,
      "name": "buffer-0-bufferview-vec3",
      "target": 34962
    },
    {
      "buffer": 0,
      "byteLength": 238984,
      "byteOffset": 778464,
      "byteStride": 8,
      "name": "buffer-0-bufferview-vec2",
      "target": 34962
    }
  ],
  "buffers": [
    {
      "byteLength": 1017448,
      "name": "buffer-0",
      "uri": "Lamborghini_Aventador.bin"
    }
  ],
  "images": [
    {
      "mimeType": "image/jpeg",
      "name": "_Lamborghini_AventadorLamborghini_Aventador_BodySG-diffuse-image",
      "uri": "E:/car/new 1/Lamborginhi_Aventador_OBJ/Lamborginhi Aventador OBJ/Lamborginhi Aventador_diffuse.jpeg"
    }
  ],
  "materials": [
    {
      "alphaMode": "OPAQUE",
      "doubleSided": true,
      "name": "_Lamborghini_AventadorLamborghini_Aventador_BodySG",
      "pbrMetallicRoughness": {
        "baseColorFactor": [
          1.0,
          1.0,
          1.0,
          1.0
        ],
        "baseColorTexture": {
          "index": 0,
          "texCoord": 0
        },
        "metallicFactor": 0.0,
        "roughnessFactor": 0.9465359392711767
      }
    },
    {
      "alphaMode": "BLEND",
      "doubleSided": true,
      "name": "_Lamborghini_AventadorLamborghini_Aventador_GlassSG",
      "pbrMetallicRoughness": {
        "baseColorFactor": [
          0.0,
          0.0,
          0.0,
          0.94
        ],
        "metallicFactor": 0.0,
        "roughnessFactor": 0.986938651063486
      }
    }
  ],
  "meshes": [
    {
      "name": "buffer-0-mesh-0",
      "primitives": [
        {
          "attributes": {
            "POSITION": 1,
            "NORMAL": 2,
            "TEXCOORD_0": 3
          },
          "indices": 0,
          "material": 0,
          "mode": 4
        },
        {
          "attributes": {
            "POSITION": 5,
            "NORMAL": 6,
            "TEXCOORD_0": 7
          },
          "indices": 4,
          "material": 0,
          "mode": 4
        },
        {
          "attributes": {
            "POSITION": 9,
            "NORMAL": 10,
            "TEXCOORD_0": 11
          },
          "indices": 8,
          "material": 0,
          "mode": 4
        },
        {
          "attributes": {
            "POSITION": 13,
            "NORMAL": 14,
            "TEXCOORD_0": 15
          },
          "indices": 12,
          "material": 0,
          "mode": 4
        },
        {
          "attributes": {
            "POSITION": 17,
            "NORMAL": 18,
            "TEXCOORD_0": 19
          },
          "indices": 16,
          "material": 0,
          "mode": 4
        },
        {
          "attributes": {
            "POSITION": 21,
            "NORMAL": 22,
            "TEXCOORD_0": 23
          },
          "indices": 20,
          "material": 1,
          "mode": 4
        }
      ]
    }
  ],
  "nodes": [
    {
      "mesh": 0,
      "name": "node-0"
    }
  ],
  "samplers": [
    {
      "name": "_Lamborghini_AventadorLamborghini_Aventador_BodySG-diffuse-sampler",
      "wrapS": 10497,
      "wrapT": 10497
    }
  ],
  "scenes": [
    {
      "name": "scene-0",
      "nodes": [
        0
      ]
    }
  ],
  "textures": [
    {
      "name": "_Lamborghini_AventadorLamborghini_Aventador_BodySG-diffuse-texture",
      "sampler": 0,
      "source": 0
    }
  ]
}